<mxfile host="app.diagrams.net" agent="Mozilla/5.0 (Windows NT 10.0; Win64; x64) AppleWebKit/537.36 (KHTML, like Gecko) Chrome/130.0.0.0 Safari/537.36" version="24.8.3">
  <diagram name="Sayfa -1" id="-7kHPEPMRNYGLeLMWBgO">
    <mxGraphModel dx="1509" dy="813" grid="1" gridSize="10" guides="1" tooltips="1" connect="1" arrows="1" fold="1" page="1" pageScale="1" pageWidth="827" pageHeight="1169" math="0" shadow="0">
      <root>
        <mxCell id="0" />
        <mxCell id="1" parent="0" />
        <mxCell id="5Z_ELoqdAqt0SmJpoWA3-5" value="" style="edgeStyle=orthogonalEdgeStyle;rounded=0;orthogonalLoop=1;jettySize=auto;html=1;" parent="1" target="5Z_ELoqdAqt0SmJpoWA3-4" edge="1">
          <mxGeometry relative="1" as="geometry">
            <mxPoint x="410" y="100" as="sourcePoint" />
          </mxGeometry>
        </mxCell>
        <mxCell id="5Z_ELoqdAqt0SmJpoWA3-7" value="" style="edgeStyle=orthogonalEdgeStyle;rounded=0;orthogonalLoop=1;jettySize=auto;html=1;" parent="1" source="5Z_ELoqdAqt0SmJpoWA3-4" target="5Z_ELoqdAqt0SmJpoWA3-6" edge="1">
          <mxGeometry relative="1" as="geometry" />
        </mxCell>
        <mxCell id="5Z_ELoqdAqt0SmJpoWA3-4" value="&lt;div style=&quot;&quot;&gt;&lt;span style=&quot;background-color: initial;&quot;&gt;Boru hızı, yerçekimi, score değişkenlerini tanımla&lt;/span&gt;&lt;/div&gt;" style="whiteSpace=wrap;html=1;align=center;" parent="1" vertex="1">
          <mxGeometry x="330" y="140" width="160" height="70" as="geometry" />
        </mxCell>
        <mxCell id="5Z_ELoqdAqt0SmJpoWA3-9" value="" style="edgeStyle=orthogonalEdgeStyle;rounded=0;orthogonalLoop=1;jettySize=auto;html=1;" parent="1" source="5Z_ELoqdAqt0SmJpoWA3-6" target="5Z_ELoqdAqt0SmJpoWA3-8" edge="1">
          <mxGeometry relative="1" as="geometry" />
        </mxCell>
        <mxCell id="5Z_ELoqdAqt0SmJpoWA3-6" value="Oyun sonu mesajlarını başta gizle" style="whiteSpace=wrap;html=1;" parent="1" vertex="1">
          <mxGeometry x="330" y="260" width="160" height="75" as="geometry" />
        </mxCell>
        <mxCell id="5Z_ELoqdAqt0SmJpoWA3-11" value="" style="edgeStyle=orthogonalEdgeStyle;rounded=0;orthogonalLoop=1;jettySize=auto;html=1;" parent="1" source="5Z_ELoqdAqt0SmJpoWA3-8" target="5Z_ELoqdAqt0SmJpoWA3-10" edge="1">
          <mxGeometry relative="1" as="geometry" />
        </mxCell>
        <mxCell id="5Z_ELoqdAqt0SmJpoWA3-8" value="Game Timer Event" style="whiteSpace=wrap;html=1;" parent="1" vertex="1">
          <mxGeometry x="330" y="380" width="160" height="50" as="geometry" />
        </mxCell>
        <mxCell id="5Z_ELoqdAqt0SmJpoWA3-15" value="" style="edgeStyle=orthogonalEdgeStyle;rounded=0;orthogonalLoop=1;jettySize=auto;html=1;" parent="1" source="5Z_ELoqdAqt0SmJpoWA3-10" target="5Z_ELoqdAqt0SmJpoWA3-14" edge="1">
          <mxGeometry relative="1" as="geometry" />
        </mxCell>
        <mxCell id="5Z_ELoqdAqt0SmJpoWA3-10" value="Kuşun konumunu günceller" style="whiteSpace=wrap;html=1;" parent="1" vertex="1">
          <mxGeometry x="330" y="470" width="160" height="50" as="geometry" />
        </mxCell>
        <mxCell id="5Z_ELoqdAqt0SmJpoWA3-19" value="" style="edgeStyle=orthogonalEdgeStyle;rounded=0;orthogonalLoop=1;jettySize=auto;html=1;" parent="1" source="5Z_ELoqdAqt0SmJpoWA3-14" target="5Z_ELoqdAqt0SmJpoWA3-18" edge="1">
          <mxGeometry relative="1" as="geometry" />
        </mxCell>
        <mxCell id="5Z_ELoqdAqt0SmJpoWA3-14" value="Boruları sola hareket ettir" style="whiteSpace=wrap;html=1;" parent="1" vertex="1">
          <mxGeometry x="330" y="555" width="160" height="45" as="geometry" />
        </mxCell>
        <mxCell id="5Z_ELoqdAqt0SmJpoWA3-21" value="" style="edgeStyle=orthogonalEdgeStyle;rounded=0;orthogonalLoop=1;jettySize=auto;html=1;" parent="1" source="5Z_ELoqdAqt0SmJpoWA3-18" target="5Z_ELoqdAqt0SmJpoWA3-20" edge="1">
          <mxGeometry relative="1" as="geometry" />
        </mxCell>
        <mxCell id="5Z_ELoqdAqt0SmJpoWA3-69" value="" style="edgeStyle=orthogonalEdgeStyle;rounded=0;orthogonalLoop=1;jettySize=auto;html=1;" parent="1" source="5Z_ELoqdAqt0SmJpoWA3-18" edge="1">
          <mxGeometry relative="1" as="geometry">
            <mxPoint x="830" y="730" as="targetPoint" />
          </mxGeometry>
        </mxCell>
        <mxCell id="5Z_ELoqdAqt0SmJpoWA3-18" value="Boruların ekrandan çıkıp çıkmadığını kontrol edip yeni boruları konumlandırır" style="rhombus;whiteSpace=wrap;html=1;align=center;fontSize=13;" parent="1" vertex="1">
          <mxGeometry x="305" y="650" width="210" height="160" as="geometry" />
        </mxCell>
        <mxCell id="5Z_ELoqdAqt0SmJpoWA3-28" value="" style="edgeStyle=orthogonalEdgeStyle;rounded=0;orthogonalLoop=1;jettySize=auto;html=1;" parent="1" source="5Z_ELoqdAqt0SmJpoWA3-20" target="5Z_ELoqdAqt0SmJpoWA3-27" edge="1">
          <mxGeometry relative="1" as="geometry" />
        </mxCell>
        <mxCell id="5Z_ELoqdAqt0SmJpoWA3-20" value="Yeni borular konumlandırılır ve skor artar" style="whiteSpace=wrap;html=1;" parent="1" vertex="1">
          <mxGeometry x="305" y="920" width="210" height="60" as="geometry" />
        </mxCell>
        <mxCell id="5Z_ELoqdAqt0SmJpoWA3-36" value="" style="edgeStyle=orthogonalEdgeStyle;rounded=0;orthogonalLoop=1;jettySize=auto;html=1;" parent="1" source="5Z_ELoqdAqt0SmJpoWA3-27" target="5Z_ELoqdAqt0SmJpoWA3-33" edge="1">
          <mxGeometry relative="1" as="geometry" />
        </mxCell>
        <mxCell id="5Z_ELoqdAqt0SmJpoWA3-40" value="" style="edgeStyle=orthogonalEdgeStyle;rounded=0;orthogonalLoop=1;jettySize=auto;html=1;" parent="1" source="5Z_ELoqdAqt0SmJpoWA3-27" target="5Z_ELoqdAqt0SmJpoWA3-39" edge="1">
          <mxGeometry relative="1" as="geometry" />
        </mxCell>
        <mxCell id="5Z_ELoqdAqt0SmJpoWA3-27" value="Kuş yere, borulara ya da ekran sınırlarına değiyor mu" style="rhombus;whiteSpace=wrap;html=1;" parent="1" vertex="1">
          <mxGeometry x="303.75" y="1040" width="211.25" height="140" as="geometry" />
        </mxCell>
        <mxCell id="5Z_ELoqdAqt0SmJpoWA3-33" value="Oyunu Bitir" style="ellipse;whiteSpace=wrap;html=1;" parent="1" vertex="1">
          <mxGeometry x="630" y="1070" width="120" height="80" as="geometry" />
        </mxCell>
        <mxCell id="5Z_ELoqdAqt0SmJpoWA3-42" value="" style="edgeStyle=orthogonalEdgeStyle;rounded=0;orthogonalLoop=1;jettySize=auto;html=1;" parent="1" source="5Z_ELoqdAqt0SmJpoWA3-39" target="5Z_ELoqdAqt0SmJpoWA3-41" edge="1">
          <mxGeometry relative="1" as="geometry" />
        </mxCell>
        <mxCell id="5Z_ELoqdAqt0SmJpoWA3-67" value="" style="edgeStyle=orthogonalEdgeStyle;rounded=0;orthogonalLoop=1;jettySize=auto;html=1;" parent="1" edge="1">
          <mxGeometry relative="1" as="geometry">
            <mxPoint x="469.1738935897438" y="1286.2666666666669" as="sourcePoint" />
            <mxPoint x="827" y="1286" as="targetPoint" />
          </mxGeometry>
        </mxCell>
        <mxCell id="5Z_ELoqdAqt0SmJpoWA3-39" value="Score&amp;gt;5" style="rhombus;whiteSpace=wrap;html=1;" parent="1" vertex="1">
          <mxGeometry x="346.55999999999995" y="1221.25" width="125.63" height="130" as="geometry" />
        </mxCell>
        <mxCell id="5Z_ELoqdAqt0SmJpoWA3-59" value="" style="edgeStyle=orthogonalEdgeStyle;rounded=0;orthogonalLoop=1;jettySize=auto;html=1;" parent="1" source="5Z_ELoqdAqt0SmJpoWA3-41" target="5Z_ELoqdAqt0SmJpoWA3-58" edge="1">
          <mxGeometry relative="1" as="geometry" />
        </mxCell>
        <mxCell id="5Z_ELoqdAqt0SmJpoWA3-41" value="Boruların hızının artır" style="whiteSpace=wrap;html=1;" parent="1" vertex="1">
          <mxGeometry x="350.0049999999999" y="1418.75" width="120" height="60" as="geometry" />
        </mxCell>
        <mxCell id="5Z_ELoqdAqt0SmJpoWA3-53" value="" style="endArrow=none;html=1;rounded=0;" parent="1" edge="1">
          <mxGeometry width="50" height="50" relative="1" as="geometry">
            <mxPoint x="490" y="400" as="sourcePoint" />
            <mxPoint x="830" y="400" as="targetPoint" />
          </mxGeometry>
        </mxCell>
        <mxCell id="5Z_ELoqdAqt0SmJpoWA3-61" value="" style="edgeStyle=orthogonalEdgeStyle;rounded=0;orthogonalLoop=1;jettySize=auto;html=1;" parent="1" source="5Z_ELoqdAqt0SmJpoWA3-58" target="5Z_ELoqdAqt0SmJpoWA3-60" edge="1">
          <mxGeometry relative="1" as="geometry" />
        </mxCell>
        <mxCell id="5Z_ELoqdAqt0SmJpoWA3-63" value="" style="edgeStyle=orthogonalEdgeStyle;rounded=0;orthogonalLoop=1;jettySize=auto;html=1;" parent="1" source="5Z_ELoqdAqt0SmJpoWA3-58" target="5Z_ELoqdAqt0SmJpoWA3-62" edge="1">
          <mxGeometry relative="1" as="geometry" />
        </mxCell>
        <mxCell id="5Z_ELoqdAqt0SmJpoWA3-58" value="Space tuşuna basılıyor mu?" style="rhombus;whiteSpace=wrap;html=1;fontSize=15;" parent="1" vertex="1">
          <mxGeometry x="301.88" y="1520" width="215" height="170" as="geometry" />
        </mxCell>
        <mxCell id="5Z_ELoqdAqt0SmJpoWA3-60" value="Yerçekimini azaltarak kuşu yukarı çıkar" style="whiteSpace=wrap;html=1;fontSize=15;" parent="1" vertex="1">
          <mxGeometry x="50" y="1571.25" width="194" height="67.5" as="geometry" />
        </mxCell>
        <mxCell id="5Z_ELoqdAqt0SmJpoWA3-62" value="Yerçekimini artırarak kuşu aşağı indir" style="whiteSpace=wrap;html=1;fontSize=15;" parent="1" vertex="1">
          <mxGeometry x="296.56999999999994" y="1740" width="225.62" height="80" as="geometry" />
        </mxCell>
        <mxCell id="5Z_ELoqdAqt0SmJpoWA3-64" value="" style="endArrow=none;html=1;rounded=0;" parent="1" edge="1">
          <mxGeometry width="50" height="50" relative="1" as="geometry">
            <mxPoint x="830" y="400" as="sourcePoint" />
            <mxPoint x="830" y="1780" as="targetPoint" />
            <Array as="points" />
          </mxGeometry>
        </mxCell>
        <mxCell id="5Z_ELoqdAqt0SmJpoWA3-65" value="" style="endArrow=classic;html=1;rounded=0;entryX=1;entryY=0.5;entryDx=0;entryDy=0;" parent="1" target="5Z_ELoqdAqt0SmJpoWA3-62" edge="1">
          <mxGeometry width="50" height="50" relative="1" as="geometry">
            <mxPoint x="827" y="1779.33" as="sourcePoint" />
            <mxPoint x="667" y="1779.33" as="targetPoint" />
          </mxGeometry>
        </mxCell>
        <mxCell id="5Z_ELoqdAqt0SmJpoWA3-70" value="&lt;font style=&quot;font-size: 20px;&quot;&gt;NO&lt;/font&gt;" style="text;html=1;align=center;verticalAlign=middle;resizable=0;points=[];autosize=1;strokeColor=none;fillColor=none;" parent="1" vertex="1">
          <mxGeometry x="515" y="690" width="50" height="40" as="geometry" />
        </mxCell>
        <mxCell id="5Z_ELoqdAqt0SmJpoWA3-71" value="&lt;font style=&quot;font-size: 16px;&quot;&gt;YES&lt;/font&gt;" style="text;html=1;align=center;verticalAlign=middle;resizable=0;points=[];autosize=1;strokeColor=none;fillColor=none;" parent="1" vertex="1">
          <mxGeometry x="409" y="810" width="60" height="30" as="geometry" />
        </mxCell>
        <mxCell id="5Z_ELoqdAqt0SmJpoWA3-72" value="&lt;font style=&quot;font-size: 20px;&quot;&gt;NO&lt;/font&gt;" style="text;html=1;align=center;verticalAlign=middle;resizable=0;points=[];autosize=1;strokeColor=none;fillColor=none;" parent="1" vertex="1">
          <mxGeometry x="414" y="1170" width="50" height="40" as="geometry" />
        </mxCell>
        <mxCell id="5Z_ELoqdAqt0SmJpoWA3-73" value="&lt;font style=&quot;font-size: 16px;&quot;&gt;YES&lt;/font&gt;" style="text;html=1;align=center;verticalAlign=middle;resizable=0;points=[];autosize=1;strokeColor=none;fillColor=none;" parent="1" vertex="1">
          <mxGeometry x="505" y="1080" width="60" height="30" as="geometry" />
        </mxCell>
        <mxCell id="5Z_ELoqdAqt0SmJpoWA3-74" value="&lt;font style=&quot;font-size: 16px;&quot;&gt;YES&lt;/font&gt;" style="text;html=1;align=center;verticalAlign=middle;resizable=0;points=[];autosize=1;strokeColor=none;fillColor=none;" parent="1" vertex="1">
          <mxGeometry x="404" y="1360" width="60" height="30" as="geometry" />
        </mxCell>
        <mxCell id="5Z_ELoqdAqt0SmJpoWA3-75" value="&lt;font style=&quot;font-size: 20px;&quot;&gt;NO&lt;/font&gt;" style="text;html=1;align=center;verticalAlign=middle;resizable=0;points=[];autosize=1;strokeColor=none;fillColor=none;" parent="1" vertex="1">
          <mxGeometry x="472.19" y="1250" width="50" height="40" as="geometry" />
        </mxCell>
        <mxCell id="5Z_ELoqdAqt0SmJpoWA3-77" value="&lt;font style=&quot;font-size: 20px;&quot;&gt;NO&lt;/font&gt;" style="text;html=1;align=center;verticalAlign=middle;resizable=0;points=[];autosize=1;strokeColor=none;fillColor=none;" parent="1" vertex="1">
          <mxGeometry x="404" y="1690" width="50" height="40" as="geometry" />
        </mxCell>
        <mxCell id="5Z_ELoqdAqt0SmJpoWA3-78" value="&lt;font style=&quot;font-size: 16px;&quot;&gt;YES&lt;/font&gt;" style="text;html=1;align=center;verticalAlign=middle;resizable=0;points=[];autosize=1;strokeColor=none;fillColor=none;" parent="1" vertex="1">
          <mxGeometry x="250" y="1580" width="60" height="30" as="geometry" />
        </mxCell>
        <mxCell id="PqDqRdlxEmaGfA5LnnuJ-1" value="BAŞLA" style="ellipse;whiteSpace=wrap;html=1;" vertex="1" parent="1">
          <mxGeometry x="350" y="20" width="120" height="80" as="geometry" />
        </mxCell>
      </root>
    </mxGraphModel>
  </diagram>
</mxfile>
